<svg xmlns="http://www.w3.org/2000/svg" viewBox="0 0 181 52">
    <path class="st0" fill="#626366" d="M177.2 22c.3 1.7.7 4.8-.9 7.9-.8 1.5-1.9 3-3.3 4.2-.7.6-1.5 1.2-2.2 1.8-.4.3-.9.9-.9.9v.7c.1 1.9 0 3.9-.2 5.8s-.7 3.9-1.9 5.5c-.3.4-.6.8-1.2 1-.5.3-1.3.2-1.7-.2-.8-.8-1.1-1.3-1.6-2-1-1.2-1.8-2.3-2.6-3.3-.6-.7-1.1-1.4-1.6-2.1-.3-.3-.5-.6-.7-.9l-.2-.3h.1c.7 1 1.5 2.1 2.4 3.3.9 1.1 1.8 2.3 2.9 3.7l.8 1c.2.3.7.9 1.4.9 1.4-.1 2-1.2 2.5-2-.4.5-.7 1.1-1.3 1.5-.5.5-1.6.6-2.1 0-.8-1-1.4-1.9-2.1-2.8-.8-1.1-1.6-2.2-2.3-3.1l4.4 5.4s1.5 2.3 3.4-1.9c1.2-2.6 1.1-8 .9-10.8 5-3.1 8-7.2 7.3-12.3.1-.6.2-1.4.1-2.7 0-.6-.7-2.3-1.3-3.2 0-.1-.1-.1-.1-.2-.1-.3-.2-.6-.4-.9-.1-.4.4.4.7.6-1-2-1-2.1-.4-1.4-.3-.5-.5-.9-.5-.9.1.1.5.3.5.3-1.4-2.5-3.8-4.9-6.8-6.2-.1 0-.2-.1-.3-.1.1-.3.3-.6.4-.9.3-.5.7-1.5.9-2.2.2-.7.4-1.6.1-3-.2-.7-.8-1.7-1.8-2.1-1-.4-1.6-.1-2.1 0-.5.2-1.1.4-1.6.7-.5.3-1.1.8-1.4 1.1-.7 1.2-.4 1.2-.4 1.8-.4 1.2-.1 2.7.5 3.9-1.7-.1-3 0-2.9.2-3.2.1-3.8.4-7 1-2.1.5-4.5 1.2-6.8 2.4-.3.2-.6.3-.9.5l-.1.1c-.1 1.6.4.9.6 1.6H145.8l.5-.1c.6-.1 1.3-.2 1.9-.3 1.3-.2 2.6-.4 3.9-.5 2.8-.3 5.6-.4 8.3-.3h.6v.9c.1 2.7.4 5.2 1.2 7.7.2.6.4 1.2.8 1.8.3.5.7 1.5 2.1 1.5 1.2-.2 1.5-1.1 1.9-1.5l1-1.5c1.2-1.9 2.4-3.7 3.4-5.8.3.2.5.4.8.7.4.5.7 1 1 1.5.1.1.2.1.4.4.2.5.5 1 .7 1.5 1.3 3.8-1.2 7.8-4.5 10.4-1.4 1.1-2.9 2.2-4.6 3.1.5-1.2.6-2.7.3-4-.4-1.3-1.1-2.9-2.8-3.4-1.8-.4-3.1.8-4 1.8-1 1-1.6 2.8-.9 4.2.6 1.4 1.7 2.3 2.9 3 .3.2.6.4.9.5h.1c-1.2.5-2.3.9-3.5 1.1-2.5.5-5 .4-7.5-.1-2.4-.5-4.8-1.4-6.9-2.6 0 0-.6-.5-1.1.4l.2.3c.2.2.4.5.7.7.5.4.9.9 1.4 1.3 1 .8 2.1 1.5 3.2 2 2.2 1.1 4.6 1.8 7.1 2 .6 0 1.2.1 1.8 0h1.1l2.1 2.7c1.4 1.7 2.7 3.5 4 5.1l.5.6c.2.3.5.5.9.7.9.4 1.8-.1 2.2-.5.9-.9 1.3-1.8 1.8-2.8.7-2 .9-3.9 1-5.8 0-.9.1-1.8.1-2.6V36.7s4.7-3.6 6-5.8c1.3-2.2 1.6-4.3 1.6-5.8-.7-1-.9-2.1-1.2-3.1"/>
    <path class="st1" fill="#c62731" d="M124.2 12.9c.2.2.4.5.6.8-.2-.4-.4-.7-.5-1 .8 1.1 2.1 2.1 3.1 2.4 0 .1-.1.1-.1.2s.3.2.4.4l-.2.2c.2.1.2.2.1.2h.1l-.1.1c.4.3.9.7 1.6.8h.1c-.4.3-.5.6-1.1 1.1-.9.8-2 1.8-2.9 2.9-.5.6-1 1.3-1.4 1.9-.2.2-.3.5-.4.7-.7 1.3-1.2 2.6-1.4 4-.1.7-.1 1.4 0 2v.5c.7-.3.6.1 1.1.1l.2-.4.5-.8c1.2-1.9 2.6-3.6 4.3-5.5l.1.1.4 1c.3.6.6 1.3.8 1.9.2.7.5 1.4.9 2 .4.6 1 1.4 2 1.2 1.6-.8 1.8-2.3 2.4-3.5.4-1.3.7-2.6.8-3.8.1-1.2.2-2.4.1-3.5 0 0-.1-.7 0-.9 0 0 .7-.3 1.1-.5 1.6-.7 2.8-1 3.4-1.2.2-.1.5-.3.7-.4-.9.1-2.8.7-4.6 1.5l-.7.3-.1.2c.1.5.1 1 .1 1.5 0 1 0 1.9-.1 2.6.1-.8.1-1.6 0-2.7 0 1.1-.1 2.1-.3 2.9.2-2 0-3.7-.2-4.6 2.6-1.4 5.6-2.6 9.1-3.3 0 0-1.2-.7-3.4-.8 0-.1.1-.1 0-.2s-1.1-.1-1.5-.2c-.1 0 .1-.1.2-.2-.6 0-.6-.1-.4-.2h-.3l.1-.1c-1.5 0-3.3.2-4.7.9-.3.1-.8.4-1.1.6-.2.1-.5.2-.7.3-.2.2-.1.3-.1.4-.2.1-.4.1-.6.2v-.5c0-.8-.1-1.1-.3-1.7-.1-.3-.2-.6-.2-.9l-.1-.3c-.4-1-.9-1.9-1.6-2.6-.8-.7-1.9-1-3-.8-1.1.2-2.2.5-3 1.5-.7 1.1 0 2.3.4 3.1 1 1.6 2.3 2.5 2.8 2.8h.4c-.5-.3-2.3-1.8-2.8-2.7m-5 15.8zM4 3.6c1.2-1 3-1.5 5.8-1.5h4.8v2.3h-5c-2.7 0-3.9.9-3.9 3.2h9v2.3h-9v5.3H2.5v-6c0-2.6.1-4.4 1.5-5.6zM22.2 1.9c4.8 0 7.1 2.2 7.1 6.8s-2.3 6.8-7.1 6.8c-4.9 0-7.1-2.2-7.1-6.9 0-4.6 2.3-6.7 7.1-6.7zm-3.9 6.7c0 3.2 1.1 4.7 3.8 4.7 2.6 0 3.8-1.5 3.8-4.5 0-3.1-1.2-4.5-3.8-4.5-2.5-.2-3.8 1.3-3.8 4.3zM34.6 2.1l5.9 9.4-.1-9.4h3.1v13.1H40l-6.2-9.9.1 9.9h-3.1V2.1h3.8zM51.7 2.1c4.2 0 6.1 2.1 6.1 6.8 0 2.4-.7 4.1-2 5.1s-2.5 1.1-4.1 1.1h-6.1v-13h6.1zm-3.2 2.3v8.5h3.2c2.4 0 3.2-1 3.2-4.3 0-3.2-.8-4.3-3.2-4.3h-3.2zM66.5 2.1l6 13.1h-3.3l-1.3-3.1h-6.1l-1.3 3.1h-3.1l5.9-13.1h3.2zm-3.7 7.7H67l-2.1-5-2.1 5zM69.7 4.4V2.2h12.1v2.3h-4.6v10.8h-3V4.4h-4.5zM82.7 15.2V2.1h3.1v13.1h-3.1zM94.1 1.9c4.7 0 6.9 2.2 6.9 6.8s-2.2 6.8-6.9 6.8c-4.8 0-6.9-2.2-6.9-6.9 0-4.6 2.3-6.7 6.9-6.7zm-3.7 6.7c0 3.2 1.1 4.7 3.7 4.7s3.7-1.5 3.7-4.5c0-3.1-1.2-4.5-3.7-4.5-2.5-.2-3.7 1.3-3.7 4.3zM106.5 2.1l6 9.4-.1-9.4h3.1v13.1h-3.6l-6.3-9.9.1 9.9h-3.2V2.1h4z"/>
    <g>
        <path class="st0" fill="#626366" d="M8.1 37.8h5.2v2.3H7.9c-1.1 0-2 .8-2.3 2.6-.1.4-.1.7-.1 1.1 0 3.1 1.2 4.4 2.6 4.4h5.4v2.3H7.6c-.3 0-.6 0-.9-.1-2.8-.4-5-3.2-4.3-7.7.4-2.8 2-4.5 4.5-4.9h1.2M17.6 44.1c0-2.8 1.5-4.3 3.8-4.4 2.5-.1 4.1 1.7 3.9 5-.2 3-1.7 4.2-4.6 3.8-1.9-.2-2.9-1.4-3.1-3.9v-.5m-3.2 1.3c.5 4 3 6 8.3 5.5 4-.3 6-2.6 5.9-6.7-.1-5.1-2.6-7.3-8.6-6.6-3.6.4-5.7 2.7-5.7 6.5 0 .4 0 .8.1 1.3M33 44.1c0-2.8 1.5-4.3 3.8-4.4 2.5-.1 4.1 1.7 3.9 5-.2 3-1.7 4.2-4.6 3.8-1.9-.2-2.9-1.4-3.1-3.9v-.5m-3.2 1.3c.5 4 3 6 8.3 5.5 4-.3 6-2.6 5.9-6.7-.1-5.1-2.6-7.3-8.6-6.6-3.6.4-5.7 2.7-5.7 6.5.1.4.1.8.1 1.3M48.4 43.9v-3.8H53c.8.1 1.4.4 1.7.9.4.6.4 1.2.1 1.8-.2.4-.5.7-1 .9-.3.1-.6.2-1 .2h-4.4zm0 6.7v-4.4h5.7c.2 0 .5 0 .7-.1 1-.1 1.8-.6 2.4-1.1 1.2-1.1 1.6-2.6 1.2-4.1-.5-1.9-2.1-3.1-4.2-3.1h-8.9v12.8h3.1zM65.3 37.8h5.9v2.3h-5.4c-1.1 0-1.8.3-2.5 1.2-.2.3-.4.6-.5 1-.1.3-.1.6-.1.8h8.5v2.3h-8.5c0 .2 0 .5.1.7.1.4.3.8.7 1.2.7.7 1.2 1 2 1h5.7v2.3h-6.7-.2c-.5 0-1-.2-1.6-.4-2.4-1-4.1-3.8-3.5-7.3.4-2.4 1.8-4.1 3.8-4.7.5-.2.9-.2 1.3-.3h1zM75.5 43.6v-3.5h4.4c1.6.1 2.3 1 2.1 2-.1.6-.6 1-1.4 1.3-.3.1-.7.2-1 .2h-4.1zm0 7v-4.9h3.6l3.4 4.9h3.7l-3.6-5.1c.2 0 .3-.1.5-.1.7-.2 1.3-.6 1.7-1.1.7-.8 1.1-1.9 1-3-.2-2-1.9-3.5-3.7-3.5h-9.5v12.8h2.9z"/>
        <path class="st0" fill="#626366" d="M91.4 45.4l1.7-4.5 1.8 4.5h-3.5zm-2 5.2l1.2-2.9h5.3l1.1 2.9h3.2l-5.6-12.8h-3.2l-5.3 12.8h3.3zM99.7 39.8v-2h11.9v2h-4.5v10.8h-2.9V39.8zM112.2 50.6h3.2V37.8h-3.2zM116.7 50.6v-7.9c0-.4 0-.7.1-1 0-.1.1-.3.1-.3s0-.1.1-.3c.7-2.2 2.6-3.3 7.5-3.3h4.1v2.3H123.2c-1.9.1-2.8.6-3.4 1.7-.2.4-.2.6-.2.8v.6h9v2.2h-9v5.4h-2.9z"/>
        <path fill="#ee653c" d="M109.3 45.8l-.1-.1v.1z"/>
    </g>
    <g>
        <path class="st0" fill="#626366" d="M8.2 21.7h5.3v2.4H8c-1.1 0-2 .8-2.3 2.7-.1.4-.1.7-.1 1.2 0 3.2 1.2 4.5 2.6 4.5h5.4v2.4H7.7c-.4 0-.6 0-.9-.1-2.8-.5-5-3.3-4.4-7.9.4-2.9 2-4.6 4.5-5.1.4 0 .7-.1 1.3-.1"/>
    </g>
    <g>
        <path class="st0" fill="#626366" d="M17.6 27.7v-3.6h4.3c1.6.1 2.3 1 2 2.1-.1.6-.6 1.1-1.4 1.3-.3.1-.7.2-1 .2h-3.9zm0 7.1v-5h3.6l3.3 5h3.6l-3.6-5.3c.2 0 .3-.1.5-.1.7-.2 1.3-.6 1.7-1.1.7-.8 1.1-1.9 1-3.1-.2-2.1-1.8-3.6-3.7-3.6h-9.4v13.1h3zM35 21.7h5.9v2.4h-5.4c-1.1 0-1.8.3-2.5 1.2-.2.3-.4.6-.5 1-.1.3-.1.6-.1.8H41v2.3h-8.5c0 .2 0 .5.1.7.1.4.3.8.7 1.2.7.7 1.2 1 2 1H41v2.4h-6.7-.2c-.5 0-1-.2-1.6-.4-2.4-1-4.1-3.9-3.5-7.5.4-2.5 1.8-4.2 3.8-4.8.5-.2.9-.3 1.3-.3H35zM45.4 32.4V24h3.4c1.4 0 2.7 1.4 2.6 4.5-.1 2.7-1.1 3.9-2.4 3.9h-3.6zm3.9 2.4h1c2.2-.3 4-2.4 4.1-6.1.1-4.5-2.2-6.9-5.7-6.9h-6.4v13.1h7zM55.5 21.7h3.1v13.1h-3.1z"/>
    </g>
    <path class="st0" fill="#626366" d="M59.1 24.1v-2.4h12.3v2.4h-4.9v10.7H64V24.1z"/>
</svg>