<svg xmlns="http://www.w3.org/2000/svg" viewBox="0 0 711.23 505"><defs><style>.cls-1{fill:#80c0ba;}</style></defs><g id="Calque_2" data-name="Calque 2"><g id="Calque_1-2" data-name="Calque 1"><circle class="cls-1" cx="500.47" cy="268.99" r="8.01"/><circle class="cls-1" cx="204.93" cy="268.77" r="8.18"/><circle class="cls-1" cx="352.45" cy="333.99" r="8.01"/><path class="cls-1" d="M344.52,88.3a15.8,15.8,0,0,0,5.14-5.76A34.94,34.94,0,0,0,352.24,74v-.07A51.42,51.42,0,0,0,353,61.24l-.06-.91A117.83,117.83,0,0,0,351.49,46a65.37,65.37,0,0,0-5.4-16.46,53.74,53.74,0,0,0-11-15.1,48.44,48.44,0,0,0-15.38-9.89C310.94,1,301.73.17,292.53,0c-.78,0-9.77.14-9.76.23.24,3.06.3,6.06.65,9.11.29,2.45.66,4.88,1.1,7.31,0,0,3.38,18.59,12.66,34.87,1.12,2,2.24,3.76,2.24,3.76s1.43,2.17,3.18,4.31C308.84,67.21,322,80,331.8,87c2.54,1.81,5.07,3.51,7.68,5.29C341.28,91.12,342.84,89.6,344.52,88.3ZM331.65,73.86s-2.71-2.07-5.38-4.44c-3.21-2.85-5.93-5.36-8.21-7.55A68.57,68.57,0,0,1,301,35.63a152.5,152.5,0,0,1-5.1-17c-.54-2.29-1.17-4.53-1.17-4.53-.12-.56-.23-.93-.32-1.44a10.44,10.44,0,0,1-.3-1.72s2.34-.51,7.29.26c21.14,3.28,29.93,14.57,29.93,14.57A43.55,43.55,0,0,1,340,41.26c2.49,7.52,2.43,14.34,2.59,18.85.26,7.45.79,15.91.95,22.29h0l-7.45-5.35Z"/><path class="cls-1" d="M442.37,22.19c-1.7,0-3.37.33-5.06.47-2.67.23-5.32.59-8,1-5.23.84-10.42,2-15.62,3-12.27,2.47-24.6,5.93-35.07,12.8a50,50,0,0,0-15.71,16.14,72.1,72.1,0,0,0-4,9.62c-.3.89-.54,1.65-.69,2.11,0,0-.06.19-.11.38-.95,3.12-1.83,7.41-1.83,7.41-1,4.92-1.52,7.38-2.41,9.35a18,18,0,0,1-2.77,4.39A13.88,13.88,0,0,1,350,90c-1.28,1.2-2.55,1.84-6.49,5.17-.51.43-1.26,1.07-2.36,1.92-1.63,1.25-2.91,2.07-3.35,2.37-11.7,8.33-18.33,13.31-19,13.82-19.74,14.4-32.31,22.05-44,44.32a69.56,69.56,0,0,0-5.66,14.24,68.81,68.81,0,0,0-1.65,26.25c2,16.46,10,27.4,13.28,31.88a87.86,87.86,0,0,0,6.29,7.6c2.22,2.33,5,5.07,6.08,6A335.81,335.81,0,0,0,324,267.41c1.45.95,2.93,1.89,4,2.55a49.41,49.41,0,0,0,11.27-2.48,81.36,81.36,0,0,0,8.43-3.06l-5.61-3a7,7,0,0,0-.88-.46c-5.33-2.81-10.68-5.65-14.61-7.9a100.66,100.66,0,0,1-15.48-11.2c-5.63-5-9.12-8.13-11.75-13.37a34.59,34.59,0,0,1-2.69-21.83c2.43-12.46,12.42-23.21,15.42-26.56a257.23,257.23,0,0,1,22.21-24c1.18-1.13,2.43-2.2,3.59-3.35,2.8-2.75,5.65-5.55,8.64-8.07,4.74-3.89,7.58-4.09,12.08,0,5.68,4.48,10.08,9.4,15,14.68,9.06,10.3,18.13,20.74,26.15,31.89a57.28,57.28,0,0,1,8,15c2.13,6.26.58,13.83-2.31,19.58-4.23,8.43-10.41,13-16,17.14-5.35,4-10.86,7.8-16.48,11.42-.66.42-3.46,2.12-7.15,4.57-1.75,1.17-3,2-3.38,2.3-.68.47-1.38.9-2,1.34-1.27.83-2.56,1.73-3.15,2.12-1.1.74-1.68,1.11-2.45,1.56s-1.37.77-1.82,1c-1.59.83-11.12,5.77-19,7.14-2.11.36-4.3.58-4.3.58a57,57,0,0,1-9.07.18c-14.19-.89-24.91-3-30.43-4.92a170.31,170.31,0,0,1-32.69-15.37A235.45,235.45,0,0,1,232.2,237c-3.28-2.57-5.94-5-8.6-7.44-2.5-2.3-3.64-3.5-5.93-5.28-2.66-2.08-7.55-6.74-10.92-3.23s1,9.36,3.5,12.08c9.81,10.81,19.4,20.17,33.37,28.89l5.72,3.59c2.27,1.42,4.15,2.61,5.47,3.45-.57.56-2.64,2.09-4,3.26-1.7,1.5-7.58,5.5-20.22,14.32a27,27,0,0,0-4.54,3.7c-3.21,3.51-4.17,10,1.27,12a5.67,5.67,0,0,0,1.84.36,7.38,7.38,0,0,0,4.65-1.76c3-2.35,6.34-4.35,9.28-6.82.71-.59,4.34-3.19,11.62-8.39,3.11-2.24,6.22-4.49,9.21-6.87l4.15-3.32,7.65,2.86a191.92,191.92,0,0,0,32.09,9.14,122.8,122.8,0,0,0,18.89,1.61s-8.05,5.76-9.45,6.86c-1.88,1.5-4.14,3.32-6.07,4.77-2.47,1.84-5,3.64-7.49,5.43-4.94,3.51-9.92,6.95-14.79,10.57l-17.11,12.73c-1.72,1.28-4.29,3.1-4.42,5.46a6.76,6.76,0,0,0,3.6,6,9.08,9.08,0,0,0,7.66-.07,23.24,23.24,0,0,0,5.53-3.62C286,335.74,288,334.4,290,333l12.14-8.82c18.7-13.57,28.16-20.2,33.62-24.48,1.72-1.35,3.07-2.42,4.21-3.35,3-2.4,3.53-2.93,6.12-5,1.35-1.09,3-2.44,5.27-4.11.64-.48,1.1-.82,5.84-4.22,5.48-3.92,5.44-3.88,5.41-3.86s1.87-1.41,3.76-2.68c1.06-.72,1.31-.83,2.25-1.44a54,54,0,0,0,4.63-3.37c5.64-4.34,10.24-7.73,13.46-10.07,2.26-1.63,2.82-2,4.7-3.41,4.07-3,7.46-5.76,11.71-9.15A112.68,112.68,0,0,0,425,225.76c7.06-9.84,9.77-15.3,12.07-24.43,6.28-24.94-9.27-47.22-11.5-50.4a108.35,108.35,0,0,0-10.07-12,157.69,157.69,0,0,0-18.46-16.76c-12.5-9.9-21.05-15.87-28.07-20.93a31.71,31.71,0,0,0-5.06.11,20.7,20.7,0,0,0-3.38.78A16.39,16.39,0,0,0,357,104c3,2.21,7.27,5.35,7.27,5.35,3.88,2.9,4.8,3.39,14.42,10.3,7.73,5.55,11.45,8.34,16,12.47,0,0,1.66,1.46,3.18,3C412,149.26,431.26,170.38,426,197.78a45.45,45.45,0,0,1-2.78,9c-.62,1.47-2.57,8.31-4.32,8.18a31.92,31.92,0,0,0-.11-9.06,32.67,32.67,0,0,0-2.95-9.21,65.66,65.66,0,0,0-10.65-15.74c-12.21-14.38-34-36.87-37.22-40.1s-7.51-8-13.13-9.34a14.87,14.87,0,0,0-2.83-.39c-4.46-.09-8.69,2.82-15.38,9.44-17,16.82-21.84,21.85-21.84,21.85A250.53,250.53,0,0,0,297,183.31c-3.24,4.3-7.91,11.33-10,16.27q-.31.71-.6,1.44a29.26,29.26,0,0,0-2.11,13,59.82,59.82,0,0,1-5.07-34.19,59.15,59.15,0,0,1,3.42-12.36A79.8,79.8,0,0,1,306,134.64c5.87-4.89,17.27-12.94,24.89-18.59,8-6,8.81-6,13-9.39.38-.3,2.19-1.59,5.8-4.18a22.78,22.78,0,0,1,8.1-4.16l.91-.2a55.65,55.65,0,0,1,11.22-1c7.55-.1,15.11.61,22.65-.43a51.91,51.91,0,0,0,23.83-8.9A50.87,50.87,0,0,0,428,76c5.45-7.68,7.49-15.06,9.58-22.62,1.55-5.59,3.21-13.67,3.61-15.72.52-2.64.8-4.26.8-4.26.43-2.41.6-3.66,1.23-6.93a11.64,11.64,0,0,0,.22-2C443.51,22.42,443.93,22.17,442.37,22.19Zm-20,41.39c-2.34,5-5.13,10-9.12,13.86a23.91,23.91,0,0,1-6.41,4.74A46.35,46.35,0,0,1,398.72,85a79.85,79.85,0,0,1-17.22,2c-6.13.16-12.28,0-18.41.13a22.6,22.6,0,0,0,.83-2.17c1.43-4.32,2.37-7.76,2.93-10,0,0,.95-3.7,2.08-7.52,3.16-10.68,13.86-20.59,24.43-24.94,2.23-.92,4.5-1.61,6.08-2.09,4.54-1.38,6.07-1.47,16-3.72,2.17-.49,5.34-1.21,9.61-2.07a57.79,57.79,0,0,1,6.13-.94A107.2,107.2,0,0,1,422.36,63.58Z"/><path class="cls-1" d="M359.81,287.23,358,288.45l-1.83,1.21c4.75,3.72,6,5,12.43,10,5.46,4.28,14.92,10.91,33.62,24.48L414.35,333c1.95,1.41,3.94,2.76,5.79,4.28a23.49,23.49,0,0,0,5.53,3.63,9.08,9.08,0,0,0,7.66.07,6.77,6.77,0,0,0,3.6-6c-.13-2.35-2.7-4.17-4.42-5.45L415.4,316.8c-4.86-3.62-9.85-7.07-14.79-10.58-2.51-1.78-5-3.58-7.49-5.43-1.93-1.45-4.18-3.27-6.07-4.76-1.39-1.11-9.45-6.86-9.45-6.86a121.34,121.34,0,0,0,18.89-1.62,190.74,190.74,0,0,0,32.09-9.14l7.65-2.86,4.15,3.33c3,2.37,6.1,4.63,9.22,6.86,7.27,5.21,10.91,7.81,11.61,8.4,2.94,2.46,6.24,4.47,9.28,6.81a7.41,7.41,0,0,0,4.65,1.77,6,6,0,0,0,1.84-.36c5.44-2,4.48-8.54,1.27-12.05a26.93,26.93,0,0,0-4.54-3.69c-12.63-8.83-18.52-12.82-20.22-14.33-1.32-1.17-3.4-2.7-4-3.26l5.47-3.45c3.13-2,5.4-3.38,5.72-3.58,14-8.72,23.56-18.09,33.38-28.9,2.46-2.72,7-8.49,3.49-12.08s-8.25,1.15-10.92,3.24c-2.29,1.78-3.42,3-5.93,5.27-2.66,2.44-5.32,4.88-8.59,7.45a236.61,236.61,0,0,1-25.41,17.9A170.91,170.91,0,0,1,414,270.25a93.82,93.82,0,0,1-30.43,4.92c-2.7.06-5,0-6.61-.05C367.84,281.62,361.13,286.33,359.81,287.23Z"/><path class="cls-1" d="M97.61,411.4v92.67H82.41V440.6L54.14,504.07H43.61L15.2,440.6v63.47H0V411.4H16.4l32.54,72.67,32.4-72.67Z"/><path class="cls-1" d="M194.28,411.4l-30.67,59.07v33.6h-15.2v-33.6l-30.8-59.07h16.94L156,456.86l21.46-45.46Z"/><path class="cls-1" d="M215.55,433.13a45,45,0,0,1,17.2-16.87,47.91,47.91,0,0,1,23.8-6.07,48.46,48.46,0,0,1,26.34,7.27,41.5,41.5,0,0,1,16.73,20.6H281.35a24.46,24.46,0,0,0-10-10.93,29.68,29.68,0,0,0-14.8-3.6,32.38,32.38,0,0,0-16.4,4.13,28.78,28.78,0,0,0-11.27,11.87,41.84,41.84,0,0,0,0,36,29.18,29.18,0,0,0,11.27,11.93,31.92,31.92,0,0,0,16.4,4.2,29.78,29.78,0,0,0,14.8-3.59,24.48,24.48,0,0,0,10-10.94h18.27a41,41,0,0,1-16.73,20.53,48.67,48.67,0,0,1-26.34,7.2,47.84,47.84,0,0,1-23.87-6.06,45.18,45.18,0,0,1-17.13-16.87,50.12,50.12,0,0,1,0-48.8Z"/><path class="cls-1" d="M340.56,423.66v27.2h32v12.41h-32v28.39h36v12.41H325.35V411.26h51.21v12.4Z"/><path class="cls-1" d="M418.42,491.8h31.33v12.27H403.22V411.4h15.2Z"/><path class="cls-1" d="M485.62,411.4v92.67h-15.2V411.4Z"/><path class="cls-1" d="M528.69,411.4v59.07q0,10.53,5.53,15.86t15.4,5.33q10,0,15.54-5.33t5.53-15.86V411.4h15.2v58.8q0,11.32-4.93,19.2a30.6,30.6,0,0,1-13.2,11.73A42.58,42.58,0,0,1,549.49,505a42.08,42.08,0,0,1-18.2-3.87,29.83,29.83,0,0,1-13-11.73q-4.8-7.87-4.8-19.2V411.4Z"/><path class="cls-1" d="M711.23,411.4v92.67H696V440.6l-28.27,63.47H657.23l-28.4-63.47v63.47h-15.2V411.4H630l32.54,72.67L695,411.4Z"/></g></g></svg>